# xmcd
#
# Track frame offsets:
#	150
#	4495
#	33132
#	40872
#	59882
#	79107
#	100307
#	120735
#	141012
#	163075
#
# Disc length: 2471 seconds
#
# Revision: 0
# Processed by: cddbd v1.5.2PL0 Copyright (c) Steve Scherf et al.
# Submitted via: EasyCDDAExtractor 11.0.3.1
#
DISCID=8509a50a
DTITLE=Vanessa Bell Armstrong - The Truth About Christmas
DYEAR=1998
DGENRE=Christmas
TTITLE0=Holy Prelude (Instrumental)
TTITLE1=O Holy Night
TTITLE2=Joy To The World
TTITLE3=Joy
TTITLE4=Sermon (Rev Jesse Bell COGIC Det Mi.)
TTITLE5=The Truth About Christmas
TTITLE6=Christmas Medley (Away in a Manger/Silent Night/Come All Ye)
TTITLE7=Christ The Lord
TTITLE8=Drummer Boy
TTITLE9=Go Tell It On The Mountain
EXTD=
EXTT0=
EXTT1=
EXTT2=
EXTT3=
EXTT4=
EXTT5=
EXTT6=
EXTT7=
EXTT8=
EXTT9=
PLAYORDER=
